<svg version="1.1"
	 xmlns="http://www.w3.org/2000/svg" xmlns:xlink="http://www.w3.org/1999/xlink" xmlns:a="http://ns.adobe.com/AdobeSVGViewerExtensions/3.0/"
	 x="0px" y="0px" width="45px" height="44px" viewBox="0 0 45 44" 
	 xml:space="preserve">

<path fill-rule="evenodd" clip-rule="evenodd" fill="#D72A1A" d="M18.804,4.523c-0.615-0.335-1.028-0.728-1.279-1.142l-0.004,0.004
	c-0.443-1.097,0.177-2.273,1.284-2.888c0.187-0.104,0.385-0.198,0.591-0.285c-0.839,0.268-1.68,0.644-2.282,1.164
	c-0.775,0.671-1.015,1.822-0.415,2.831L0.645,20.263c-0.86,0.86-0.86,2.255,0,3.116l5.831,5.83
	C13.685,23.394,36.674,16.45,18.804,4.523z"/>
<path fill-rule="evenodd" clip-rule="evenodd" fill="#D72A1A" d="M21.32,0.242c-0.011,0.006-0.022,0.012-0.033,0.019
	c-1.215,0.707-1.032,2.518,0.284,3.011c0.981,0.368,2.303,0.742,3.749,1.151c0.947,0.268,1.947,0.551,2.941,0.857l-4.76-4.76
	c-0.004-0.004-0.008-0.008-0.012-0.012C22.916-0.057,22.021-0.158,21.32,0.242z"/>
<path fill-rule="evenodd" clip-rule="evenodd" fill="#D72A1A" d="M43.244,20.263l-6.357-6.357c-0.244-1.671-1.166-3.126-3.584-3.648
	c0.143,0.091,0.279,0.185,0.411,0.279c1.28,0.925,1.847,2.571,1.393,4.084c-0.001,0.006-0.003,0.013-0.005,0.019
	c-0.061,0.168-0.126,0.349-0.199,0.541l0.013,0.017C32.054,22.91,18.062,32.413,19.37,40.353c0.412,2.503,3.537,3.442,5.324,1.643
	l10.582-10.648l7.969-7.968C44.104,22.518,44.104,21.123,43.244,20.263z"/>
<path fill-rule="evenodd" clip-rule="evenodd" fill="#52504E" d="M16.657,27.884c-0.842,0.655-1.617,1.241-2.319,1.765h3.369
	c1.004-0.847,1.895-1.583,2.435-2.079c0.926-0.851,1.892-1.773,2.877-2.769h-2.571C19.103,25.953,17.82,26.977,16.657,27.884z
	 M29.22,11.343c0.07,0.188,0.13,0.382,0.174,0.583h0.782c-0.254-0.967-0.818-1.776-1.563-2.474h-0.699
	c0.281,0.279,0.551,0.582,0.789,0.928C28.904,10.673,29.082,10.993,29.22,11.343z M27.058,8.691h0.62
	c-0.354-0.253-0.732-0.488-1.121-0.711h-0.512c0.338,0.221,0.673,0.456,1.002,0.712C27.051,8.692,27.054,8.691,27.058,8.691z
	 M25.622,7.481c-0.755-0.379-1.526-0.721-2.261-1.039c0.613,0.324,1.241,0.666,1.872,1.039H25.622z M29.471,13.086
	c-0.048,0.61-0.227,1.248-0.482,1.858c-0.344,0.823-0.804,1.592-1.293,2.306c-0.182,0.264-0.369,0.52-0.561,0.771h1.447
	c0.436-0.722,0.852-1.503,1.197-2.404c0.199-0.528,0.377-1.1,0.484-1.715c0.043-0.283,0.06-0.554,0.059-0.816H29.471z M26.139,19.26
	c-1.08,1.258-2.203,2.376-3.306,3.411c-0.157,0.146-0.313,0.288-0.469,0.431h2.279c0.697-0.76,1.397-1.566,2.087-2.438
	c0.408-0.518,0.812-1.061,1.205-1.639h-1.6C26.27,19.103,26.205,19.183,26.139,19.26z M10.333,33.248l2.2,0.784
	c1.473-1.239,2.27-1.687,3.541-2.97l-2.883-0.11C12.097,31.889,11.313,32.475,10.333,33.248z"/>
</svg>
